<?xml version="1.0" encoding="UTF-8"?>
<svg xmlns="http://www.w3.org/2000/svg" id="Layer_1" data-name="Layer 1" viewBox="0 0 24 24">
  <path d="m10,11c0,.552-.448,1-1,1s-1-.448-1-1,.448-1,1-1,1,.448,1,1Zm5-1c-.552,0-1,.448-1,1s.448,1,1,1,1-.448,1-1-.448-1-1-1Zm9,1c0,1.654-1.346,3-3,3h-.6c-.477,1.146-1.29,2.308-2.325,3.3,1.619,1.681,2.627,3.799,2.921,6.138.034.274-.16.524-.434.559-.021.003-.042.004-.063.004-.248,0-.464-.185-.495-.438-.268-2.138-1.195-4.072-2.682-5.603-1.516,1.212-3.382,2.041-5.32,2.041h-.002c-1.939,0-3.805-.83-5.322-2.041-1.487,1.531-2.414,3.465-2.682,5.603-.031.253-.247.438-.495.438-.021,0-.042,0-.063-.004-.273-.034-.468-.284-.434-.559.294-2.339,1.302-4.456,2.921-6.138-1.035-.992-1.848-2.154-2.325-3.3h-.6c-1.654,0-3-1.346-3-3,0-1.524,1.144-2.787,2.617-2.976C3.333,3.421,7.293,0,12,0s8.674,3.426,9.385,8.035c1.495.204,2.615,1.456,2.615,2.965Zm-1,0c0-1.103-.897-2-2-2-.255,0-.526-.186-.555-.439-.474-4.311-4.104-7.561-8.445-7.561-1.654,0-3,1.346-3,3s1.346,3,3,3c1.458,0,2.7-1.04,2.954-2.474.048-.272.312-.457.579-.405.272.048.453.308.405.579-.338,1.912-1.994,3.3-3.938,3.3-2.206,0-4-1.794-4-4,0-.887.29-1.706.78-2.37-2.806,1.146-4.875,3.749-5.225,6.931-.031.279-.333.482-.602.437-1.056.003-1.953.9-1.953,2.003s.897,2,2,2h.941c.211,0,.399.132.471.33.982,2.728,4.162,5.671,7.588,5.671h.002c3.425,0,6.604-2.943,7.586-5.671.071-.198.26-.33.471-.33h.941c1.103,0,2-.897,2-2Z"/>
</svg>
