<svg width="24px"  height="24px"  viewBox="0 0 24 24"  fill="none" xmlns="http://www.w3.org/2000/svg">
<path fill-rule="evenodd" clip-rule="evenodd" d="M12 3C16.9709 3 21 7.02908 21 12C21 16.9709 16.9709 21 12 21C7.02908 21 3 16.9709 3 12C3 7.02908 7.02908 3 12 3Z" stroke="#000000"  stroke-width="1"  stroke-linecap="round" stroke-linejoin="round"/>
<path d="M6.61654 4.90234C6.61654 4.90234 8.79405 10.9046 3 12.0002" stroke="#000000"  stroke-width="1"  stroke-linecap="round" stroke-linejoin="round"/>
<path d="M3.88965 15.9119C4.82565 15.9771 6.5303 15.6969 9.03084 13.8989C12.0081 11.7544 12.6921 16.2865 11.7464 20.987" stroke="#000000"  stroke-width="1"  stroke-linecap="round" stroke-linejoin="round"/>
<path d="M12.4035 3C12.4035 3 11.7906 5.53654 13.5448 6.90843C15.2991 8.27935 16.6097 8.17913 16.8276 9.9227C17.0456 11.6663 14.8934 11.9591 16.4676 14.5541C17.5068 16.2675 18.6802 17.3397 18.6364 18.049" stroke="#000000"  stroke-width="1"  stroke-linecap="round" stroke-linejoin="round"/>
</svg>