<?xml version="1.0" encoding="UTF-8"?>
<svg xmlns="http://www.w3.org/2000/svg" id="Layer_1" data-name="Layer 1" viewBox="0 0 24 24">
  <path d="m24.002,5.513c.002-.822-.492-1.546-1.258-1.845L14.561.474c-1.615-.63-3.396-.633-5.013-.007h0L1.266,3.671C.498,3.968.001,4.692.002,5.516s.497,1.547,1.265,1.843l3.733,1.44v5.701c0,.276.224.5.5.5s.5-.224.5-.5v-5.315l3.502,1.351c.803.31,1.647.465,2.491.465s1.688-.155,2.491-.465l3.516-1.356v5.32c0,.276.224.5.5.5s.5-.224.5-.5v-5.706l3.737-1.441c.097-.037.175-.1.263-.15v6.297c0,.276.224.5.5.5s.5-.224.5-.5v-7.974s.002-.008.002-.013Zm-1.625.907l-8.253,3.184c-1.374.53-2.887.53-4.261,0L1.627,6.426c-.46-.178-.625-.587-.625-.911s.164-.733.625-.911L9.909,1.399h0c1.384-.536,2.907-.533,4.29.006l8.183,3.194c.453.177.616.578.62.899,0,0,0,.001,0,.002v.026c-.005.321-.17.719-.623.894Zm.747,10.09c-.578-.455-1.322-.617-2.044-.442-2.177.527-6.251,1.411-9.079,1.411s-6.902-.884-9.08-1.411c-.723-.177-1.467-.013-2.044.442-.557.438-.876,1.09-.876,1.789v3.401c0,.699.319,1.351.876,1.789.578.455,1.322.615,2.044.442,2.177-.527,6.251-1.411,9.079-1.411s6.902.884,9.08,1.411c.19.046.382.069.572.069.53,0,1.046-.176,1.472-.511.557-.438.876-1.09.876-1.789v-3.401c0-.699-.319-1.351-.876-1.789ZM2.686,22.96c-.422.102-.855.008-1.191-.256-.314-.248-.495-.613-.495-1.003v-3.401c0-.39.181-.756.495-1.003.335-.264.769-.358,1.19-.256,2.556.619,6.084,1.342,8.814,1.423v3.073c-2.73.082-6.258.804-8.814,1.423Zm20.314-1.259c0,.39-.181.756-.495,1.003-.335.264-.769.358-1.19.256-2.556-.619-6.084-1.342-8.814-1.423v-3.073c2.73-.082,6.258-.804,8.814-1.423.422-.102.855-.008,1.191.256.314.248.495.613.495,1.003v3.401Z"/>
</svg>
