<?xml version="1.0" encoding="UTF-8"?>
<svg xmlns="http://www.w3.org/2000/svg" id="Layer_1" data-name="Layer 1" viewBox="0 0 24 24">
  <path d="m15,16.5c0,.276-.224.5-.5.5h-5c-.276,0-.5-.224-.5-.5s.224-.5.5-.5h5c.276,0,.5.224.5.5Zm-.146-9.354c-.195-.195-.512-.195-.707,0l-2.146,2.146-2.146-2.146c-.195-.195-.512-.195-.707,0s-.195.512,0,.707l2.146,2.146-2.146,2.146c-.195.195-.195.512,0,.707.098.098.226.146.354.146s.256-.049.354-.146l2.146-2.146,2.146,2.146c.098.098.226.146.354.146s.256-.049.354-.146c.195-.195.195-.512,0-.707l-2.146-2.146,2.146-2.146c.195-.195.195-.512,0-.707Zm7.646,8.854h-5c-.276,0-.5.224-.5.5s.224.5.5.5h5c.276,0,.5-.224.5-.5s-.224-.5-.5-.5Zm-1.793-6l2.146-2.146c.195-.195.195-.512,0-.707s-.512-.195-.707,0l-2.146,2.146-2.146-2.146c-.195-.195-.512-.195-.707,0s-.195.512,0,.707l2.146,2.146-2.146,2.146c-.195.195-.195.512,0,.707.098.098.226.146.354.146s.256-.049.354-.146l2.146-2.146,2.146,2.146c.098.098.226.146.354.146s.256-.049.354-.146c.195-.195.195-.512,0-.707l-2.146-2.146Zm-14.207,6H1.5c-.276,0-.5.224-.5.5s.224.5.5.5h5c.276,0,.5-.224.5-.5s-.224-.5-.5-.5Zm.354-8.854c-.195-.195-.512-.195-.707,0l-2.146,2.146-2.146-2.146c-.195-.195-.512-.195-.707,0s-.195.512,0,.707l2.146,2.146-2.146,2.146c-.195.195-.195.512,0,.707.098.098.226.146.354.146s.256-.049.354-.146l2.146-2.146,2.146,2.146c.098.098.226.146.354.146s.256-.049.354-.146c.195-.195.195-.512,0-.707l-2.146-2.146,2.146-2.146c.195-.195.195-.512,0-.707Z"/>
</svg>
