<?xml version="1.0" encoding="UTF-8"?>
<svg xmlns="http://www.w3.org/2000/svg" id="Layer_1" data-name="Layer 1" viewBox="0 0 24 24">
  <path d="m23.181,9.655c-.496-.452-1.141-.674-1.809-.652-.67.032-1.288.322-1.739.818l-3.732,4.102c-.314-1.108-1.335-1.922-2.543-1.922H3.5c-1.93,0-3.5,1.57-3.5,3.5v5c0,1.93,1.57,3.5,3.5,3.5h5.965c2.707,0,5.292-1.159,7.093-3.181l6.806-7.639c.911-1.022.829-2.604-.183-3.526Zm-.563,2.861l-6.806,7.639c-1.611,1.809-3.925,2.846-6.347,2.846H3.5c-1.379,0-2.5-1.122-2.5-2.5v-5c0-1.378,1.121-2.5,2.5-2.5h9.857c.905,0,1.643.737,1.643,1.642,0,.812-.606,1.511-1.398,1.624l-6.161.737c-.274.033-.47.282-.437.556.032.274.282.464.556.437l6.173-.739c1.021-.146,1.844-.878,2.145-1.824l4.496-4.94c.271-.298.643-.473,1.046-.492.398-.018.789.12,1.088.393.609.555.658,1.506.11,2.122ZM5,3.244c0-1.237,1.006-2.244,2.243-2.244h.757v-.5c0-.276.224-.5.5-.5s.5.224.5.5v.5h.551c.979,0,1.892.527,2.382,1.375.139.239.057.545-.183.683-.237.136-.544.057-.683-.183-.312-.54-.894-.875-1.517-.875h-2.308c-.686,0-1.243.558-1.243,1.244,0,.536.342,1.01.851,1.18l3.615,1.205c.918.306,1.534,1.161,1.534,2.128,0,1.237-1.006,2.244-2.243,2.244h-.757v.5c0,.276-.224.5-.5.5s-.5-.224-.5-.5v-.5h-.551c-.979,0-1.892-.526-2.382-1.375-.139-.239-.057-.545.183-.683.235-.139.543-.058.683.183.312.54.894.875,1.517.875h2.308c.686,0,1.243-.558,1.243-1.244,0-.536-.342-1.01-.851-1.18l-3.615-1.205c-.918-.306-1.534-1.161-1.534-2.128Zm8,1.256c0-.276.224-.5.5-.5h6.224l-2.582-2.651c-.192-.198-.188-.514.01-.707.197-.19.514-.189.707.01l2.701,2.773c.244.244.44.601.44,1.075s-.213.809-.445,1.042l-2.694,2.805c-.098.103-.229.154-.36.154-.125,0-.249-.046-.347-.14-.199-.191-.205-.508-.014-.707l2.549-2.654h-6.189c-.276,0-.5-.224-.5-.5Z"/>
</svg>
